<svg xmlns="http://www.w3.org/2000/svg" xmlns:xlink="http://www.w3.org/1999/xlink" width="385.853" height="300.707" viewBox="0 0 385.853 300.707"><defs><filter id="a" x="71.145" y="242.301" width="38.38" height="11.447" filterUnits="userSpaceOnUse"><feOffset dx="1" dy="1" input="SourceAlpha"/><feGaussianBlur result="b"/><feFlood flood-opacity="0.2"/><feComposite operator="in" in2="b"/><feComposite in="SourceGraphic"/></filter><filter id="c" x="114.192" y="242.301" width="38.38" height="11.447" filterUnits="userSpaceOnUse"><feOffset dx="1" dy="1" input="SourceAlpha"/><feGaussianBlur result="d"/><feFlood flood-opacity="0.2"/><feComposite operator="in" in2="d"/><feComposite in="SourceGraphic"/></filter><filter id="e" x="73.487" y="184.597" width="84.18" height="16.215" filterUnits="userSpaceOnUse"><feOffset dx="2" dy="1" input="SourceAlpha"/><feGaussianBlur result="f"/><feFlood flood-opacity="0.2"/><feComposite operator="in" in2="f"/><feComposite in="SourceGraphic"/></filter></defs><g transform="translate(-20.146 -51.39)"><path d="M375.81,404.906c0,2.054-70.712,3.721-157.942,3.721S59.927,406.96,59.927,404.906s70.712-3.722,157.942-3.722S375.81,402.85,375.81,404.906Z" transform="translate(-4.796 -56.529)" fill="#e5e9ed"/><g transform="translate(328.296 188.497)"><g transform="translate(0)"><path d="M430.03,382.326c-7.4-15.595-36.594-29.772-19.053-49.462s-38.346-41.714-12.714-60.176c28.238-20.339,13.637-49.364,31.767-49.364Z" transform="translate(-391.417 -223.324)" fill="#fff" stroke="#bec8d2" stroke-miterlimit="10" stroke-width="1"/><path d="M435.4,382.326c7.4-15.595,36.594-29.772,19.053-49.462s38.346-41.714,12.714-60.176c-28.238-20.339-13.637-49.364-31.767-49.364Z" transform="translate(-396.783 -223.324)" fill="#fff" stroke="#bec8d2" stroke-miterlimit="10" stroke-width="1"/></g><path d="M431.981,388.289c0-21.9-24.572-26.152-24.572-26.152" transform="translate(-393.368 -240.262)" fill="none" stroke="#bec8d2" stroke-miterlimit="10" stroke-width="1"/><path d="M430.03,332.062c0-23.891-23.416-42.165-38.613-40.854" transform="translate(-391.417 -231.599)" fill="none" stroke="#bec8d2" stroke-miterlimit="10" stroke-width="1"/><path d="M433.681,281c0-24.714-12.338-37-12.338-37" transform="translate(-395.069 -225.847)" fill="none" stroke="#bec8d2" stroke-miterlimit="10" stroke-width="1"/><path d="M435.4,388.289c0-21.9,24.572-26.152,24.572-26.152" transform="translate(-396.783 -240.262)" fill="none" stroke="#bec8d2" stroke-miterlimit="10" stroke-width="1"/><path d="M435.4,332.062c0-23.891,23.417-42.165,38.613-40.854" transform="translate(-396.783 -231.599)" fill="none" stroke="#bec8d2" stroke-miterlimit="10" stroke-width="1"/><path d="M435.4,281c0-24.714,12.338-37,12.338-37" transform="translate(-396.783 -225.847)" fill="none" stroke="#bec8d2" stroke-miterlimit="10" stroke-width="1"/></g><g transform="translate(20.625 188.497)"><g transform="translate(0)"><path d="M64.6,382.326c7.4-15.595,36.594-29.772,19.053-49.462S122,291.15,96.371,272.688C68.133,252.348,82.734,223.324,64.6,223.324Z" transform="translate(-25.991 -223.324)" fill="#fff" stroke="#bec8d2" stroke-miterlimit="10" stroke-width="1"/><path d="M59.238,382.326c-7.4-15.595-36.594-29.772-19.053-49.462S1.839,291.15,27.471,272.688c28.238-20.339,13.637-49.364,31.767-49.364Z" transform="translate(-20.625 -223.324)" fill="#fff" stroke="#bec8d2" stroke-miterlimit="10" stroke-width="1"/></g><path d="M64.6,388.289c0-21.9,24.572-26.152,24.572-26.152" transform="translate(-25.991 -240.262)" fill="none" stroke="#bec8d2" stroke-miterlimit="10" stroke-width="1"/><path d="M64.6,332.062c0-23.891,23.416-42.165,38.613-40.854" transform="translate(-25.991 -231.599)" fill="none" stroke="#bec8d2" stroke-miterlimit="10" stroke-width="1"/><path d="M64.6,281c0-24.714,12.338-37,12.338-37" transform="translate(-25.991 -225.847)" fill="none" stroke="#bec8d2" stroke-miterlimit="10" stroke-width="1"/><path d="M61.189,388.289c0-21.9-24.572-26.152-24.572-26.152" transform="translate(-22.576 -240.262)" fill="none" stroke="#bec8d2" stroke-miterlimit="10" stroke-width="1"/><path d="M59.238,332.062c0-23.891-23.417-42.165-38.613-40.854" transform="translate(-20.625 -231.599)" fill="none" stroke="#bec8d2" stroke-miterlimit="10" stroke-width="1"/><path d="M62.889,281c0-24.714-12.338-37-12.338-37" transform="translate(-24.276 -225.847)" fill="none" stroke="#bec8d2" stroke-miterlimit="10" stroke-width="1"/></g><path d="M120.343,166.661a27.058,27.058,0,0,0-.433-4.818,2.32,2.32,0,0,1,1.133-2.416l3.773-2.178a2.34,2.34,0,0,0,.857-3.2l-5.3-9.189a2.341,2.341,0,0,0-3.2-.857l-3.779,2.181a2.319,2.319,0,0,1-2.659-.227,27.077,27.077,0,0,0-8.343-4.824,2.32,2.32,0,0,1-1.522-2.188v-4.355a2.342,2.342,0,0,0-2.342-2.342H87.913a2.342,2.342,0,0,0-2.342,2.342v4.355a2.319,2.319,0,0,1-1.523,2.188,27.088,27.088,0,0,0-8.343,4.824,2.319,2.319,0,0,1-2.659.227L69.269,144a2.34,2.34,0,0,0-3.2.857l-5.306,9.189a2.342,2.342,0,0,0,.857,3.2l3.773,2.178a2.319,2.319,0,0,1,1.133,2.416,27.084,27.084,0,0,0,0,9.636,2.32,2.32,0,0,1-1.133,2.417l-3.773,2.177a2.343,2.343,0,0,0-.857,3.2l5.306,9.189a2.342,2.342,0,0,0,3.2.857l3.778-2.182a2.321,2.321,0,0,1,2.659.228,27.075,27.075,0,0,0,8.343,4.823,2.32,2.32,0,0,1,1.523,2.189v4.355a2.341,2.341,0,0,0,2.342,2.341h10.61a2.341,2.341,0,0,0,2.342-2.341v-4.355a2.321,2.321,0,0,1,1.522-2.189,27.075,27.075,0,0,0,8.343-4.823,2.321,2.321,0,0,1,2.659-.228l3.779,2.182a2.342,2.342,0,0,0,3.2-.857l5.3-9.189a2.34,2.34,0,0,0-.857-3.2l-3.773-2.178a2.321,2.321,0,0,1-1.133-2.417A27.056,27.056,0,0,0,120.343,166.661Zm-25.224,14.5a14.623,14.623,0,1,1,12.6-12.6A14.63,14.63,0,0,1,95.119,181.16Z" transform="translate(-4.859 -13.781)" fill="#fff" stroke="#bec8d2" stroke-miterlimit="10" stroke-width="1"/><path d="M162.893,108.561a32.361,32.361,0,0,0,2.5-5.2,2.768,2.768,0,0,1,2.637-1.787l5.2.07a2.794,2.794,0,0,0,2.832-2.756l.172-12.661a2.8,2.8,0,0,0-2.757-2.832l-5.206-.07a2.77,2.77,0,0,1-2.588-1.859,32.326,32.326,0,0,0-5.609-10.04,2.767,2.767,0,0,1-.226-3.173l2.659-4.465a2.794,2.794,0,0,0-.971-3.831l-10.879-6.48a2.8,2.8,0,0,0-3.832.971l-2.659,4.465a2.768,2.768,0,0,1-2.9,1.313,32.3,32.3,0,0,0-11.5-.149,2.769,2.769,0,0,1-2.867-1.391L124.36,54.14a2.8,2.8,0,0,0-3.8-1.075l-11.051,6.183a2.794,2.794,0,0,0-1.075,3.8l2.538,4.537a2.767,2.767,0,0,1-.314,3.17,32.3,32.3,0,0,0-5.884,9.88,2.768,2.768,0,0,1-2.637,1.787l-5.2-.07A2.794,2.794,0,0,0,94.1,85.11l-.171,12.661a2.794,2.794,0,0,0,2.756,2.832l5.206.07a2.77,2.77,0,0,1,2.587,1.859,32.316,32.316,0,0,0,5.609,10.04,2.767,2.767,0,0,1,.226,3.173l-2.659,4.465a2.8,2.8,0,0,0,.971,3.831l10.88,6.48a2.793,2.793,0,0,0,3.831-.971L126,125.085a2.766,2.766,0,0,1,2.9-1.313,32.323,32.323,0,0,0,11.5.148,2.769,2.769,0,0,1,2.866,1.391l2.542,4.544a2.8,2.8,0,0,0,3.8,1.075l11.051-6.183a2.794,2.794,0,0,0,1.075-3.8l-2.538-4.537a2.767,2.767,0,0,1,.314-3.17A32.36,32.36,0,0,0,162.893,108.561Zm-34.717-.536a17.451,17.451,0,1,1,20.612-5.224A17.46,17.46,0,0,1,128.176,108.025Z" transform="translate(-12.535 -0.075)" fill="#fff" stroke="#bec8d2" stroke-miterlimit="10" stroke-width="1"/><path d="M433.082,139.117a37,37,0,0,0-.592-6.587,3.17,3.17,0,0,1,1.548-3.3l5.158-2.978a3.2,3.2,0,0,0,1.171-4.372l-7.252-12.562a3.2,3.2,0,0,0-4.373-1.171l-5.164,2.982a3.171,3.171,0,0,1-3.636-.312,37.052,37.052,0,0,0-11.4-6.594,3.169,3.169,0,0,1-2.082-2.99V95.276a3.2,3.2,0,0,0-3.2-3.2H388.75a3.2,3.2,0,0,0-3.2,3.2v5.954a3.17,3.17,0,0,1-2.083,2.99,37.037,37.037,0,0,0-11.4,6.594,3.171,3.171,0,0,1-3.636.312l-5.165-2.982a3.2,3.2,0,0,0-4.372,1.171l-7.253,12.562a3.2,3.2,0,0,0,1.172,4.372l5.157,2.978a3.169,3.169,0,0,1,1.548,3.3,37,37,0,0,0,0,13.172,3.172,3.172,0,0,1-1.548,3.3l-5.157,2.977a3.2,3.2,0,0,0-1.172,4.373l7.253,12.561a3.2,3.2,0,0,0,4.372,1.172l5.165-2.983a3.172,3.172,0,0,1,3.636.312,37,37,0,0,0,11.4,6.594A3.17,3.17,0,0,1,385.548,177v5.953a3.2,3.2,0,0,0,3.2,3.2h14.505a3.2,3.2,0,0,0,3.2-3.2V177a3.17,3.17,0,0,1,2.082-2.991,37,37,0,0,0,11.4-6.594,3.175,3.175,0,0,1,3.637-.312l5.164,2.983a3.2,3.2,0,0,0,4.373-1.172l7.252-12.561a3.2,3.2,0,0,0-1.171-4.372l-5.158-2.978a3.172,3.172,0,0,1-1.548-3.3A36.991,36.991,0,0,0,433.082,139.117ZM398.6,158.938a19.99,19.99,0,1,1,17.222-17.223A20,20,0,0,1,398.6,158.938Z" transform="translate(-58.215 -4.878)" fill="#fff" stroke="#bec8d2" stroke-miterlimit="10" stroke-width="1"/><g transform="translate(68.861 52.097)"><g transform="translate(1.62 90.827)"><rect width="267.307" height="171.35" fill="#e5e9ed"/><g transform="translate(0 6.864)"><rect width="267.307" height="15.026" fill="#bec8d2"/><g transform="translate(6.554 4.694)"><g transform="translate(-106.207 -184.583)" fill="none" stroke-miterlimit="10"><path d="M117.379,190.221h-3.643a.632.632,0,0,1-.558-.686v-2.35a.761.761,0,0,1,.2-.522l1.821-1.917a.481.481,0,0,1,.724,0l1.822,1.917a.761.761,0,0,1,.195.522v2.35A.632.632,0,0,1,117.379,190.221Z" stroke="none"/><path d="M 116.9367828369141 189.2213592529297 L 116.9367828369141 187.2682647705078 L 115.557975769043 185.8176879882813 L 114.1790008544922 187.2691345214844 L 114.1790008544922 189.2213592529297 L 116.9367828369141 189.2213592529297 M 117.379264831543 190.2213592529297 L 113.7365188598633 190.2213592529297 C 113.4292221069336 190.2213592529297 113.1790008544922 189.9140472412109 113.1790008544922 189.53564453125 L 113.1790008544922 187.1852874755859 C 113.1790008544922 186.985107421875 113.2509918212891 186.793701171875 113.3747787475586 186.6637725830078 L 115.1957244873047 184.7471313476563 C 115.3002014160156 184.6373901367188 115.4292678833008 184.5825042724609 115.558219909668 184.5825042724609 C 115.6871795654297 184.5825042724609 115.8160247802734 184.6373901367188 115.9200592041016 184.7471313476563 L 117.7418746948242 186.6637725830078 C 117.8656692504883 186.793701171875 117.9367828369141 186.985107421875 117.9367828369141 187.1852874755859 L 117.9367828369141 189.53564453125 C 117.9367828369141 189.9140472412109 117.6874389648438 190.2213592529297 117.379264831543 190.2213592529297 Z" stroke="none" fill="#174159"/></g><g transform="translate(0 1.196)"><path d="M123.94,189.191l2.1-1.354a.291.291,0,0,0,0-.538l-2.1-1.354" transform="translate(-107.52 -185.945)" fill="none" stroke="#174159" stroke-linecap="round" stroke-miterlimit="10" stroke-width="1"/><path d="M107.521,189.191l-2.1-1.354a.291.291,0,0,1,0-.538l2.1-1.354" transform="translate(-105.237 -185.945)" fill="none" stroke="#174159" stroke-linecap="round" stroke-miterlimit="10" stroke-width="1"/></g></g><g transform="translate(31.921 2.845)"><rect width="206.751" height="9.336" rx="2.603" fill="#f2f2f2"/><rect width="68.119" height="2.819" transform="translate(69.316 3.258)" fill="#bec8d2"/><g transform="translate(3.863 2.674)"><path d="M141.933,186.107a1.994,1.994,0,1,1-2.82,0A1.995,1.995,0,0,1,141.933,186.107Z" transform="translate(-138.529 -185.523)" fill="none" stroke="#bec8d2" stroke-miterlimit="10" stroke-width="1"/><line x2="1.198" y2="1.198" transform="translate(3.403 3.403)" fill="none" stroke="#bec8d2" stroke-linecap="round" stroke-miterlimit="10" stroke-width="1"/></g><g transform="translate(199.665 2.117)"><path d="M365.531,187.517a1.994,1.994,0,1,1-1.994-1.994" transform="translate(-361.543 -184.966)" fill="none" stroke="#bec8d2" stroke-linecap="round" stroke-miterlimit="10" stroke-width="1"/><path d="M363.814,184.888l1.061.717-1.061.717Z" transform="translate(-361.82 -184.888)" fill="none" stroke="#bec8d2" stroke-linecap="round" stroke-linejoin="round" stroke-width="1"/></g></g><path d="M378.978,184.573l.7,2.16h2.271l-1.837,1.335.7,2.16-1.838-1.335-1.838,1.335.7-2.16L376,186.733h2.271Z" transform="translate(-131.721 -179.888)" fill="none" stroke="#174159" stroke-linecap="round" stroke-linejoin="round" stroke-width="1"/><g transform="translate(255.031 5.144)"><line x2="7.419" fill="none" stroke="#174159" stroke-linecap="round" stroke-linejoin="round" stroke-width="1"/><line x2="7.419" transform="translate(0 2.369)" stroke-width="1" stroke="#174159" stroke-linecap="round" stroke-linejoin="round" fill="none"/><line x2="7.419" transform="translate(0 4.738)" stroke-width="1" stroke="#174159" stroke-linecap="round" stroke-linejoin="round" fill="none"/></g></g><path d="M365.079,171.418v171.35H97.772" transform="translate(-97.772 -171.418)" fill="none" stroke="#174159" stroke-miterlimit="10" stroke-width="0.75"/><rect width="267.307" height="6.864" fill="#174159"/><g transform="translate(3.749 1.824)"><circle cx="1.608" cy="1.608" r="1.608" transform="translate(0 0)" fill="#fae54e"/><circle cx="1.608" cy="1.608" r="1.608" transform="translate(4.414 0)" fill="#2d80ea"/><path d="M115.311,175.1A1.608,1.608,0,1,1,113.7,173.5,1.607,1.607,0,0,1,115.311,175.1Z" transform="translate(-103.269 -173.496)" fill="#e148be"/></g></g><g transform="translate(21.962 119.985)"><rect width="92.408" height="10.447" transform="translate(133.97 121.609)" fill="#5620d8"/><circle cx="12.18" cy="12.18" r="12.18" fill="#5620d8"/><g transform="translate(30.422 7.067)"><rect width="47.62" height="4.133" fill="#bba6ef"/><rect width="35.005" height="4.133" transform="translate(0 6.092)" fill="#bba6ef"/></g><g transform="translate(143.122 7.067)"><rect width="23.81" height="4.133" fill="#bec8d2"/><rect width="23.81" height="4.133" transform="translate(29.723)" fill="#bec8d2"/></g><line x2="225.686" transform="translate(0.468 28.937)" fill="none" stroke="#174159" stroke-miterlimit="10" stroke-width="1"/><g transform="translate(0.468 81.307)"><rect width="77.574" height="6.24" fill="#bba6ef"/><g transform="translate(0 12.223)"><rect width="107.952" height="2.763" fill="#bec8d2"/><rect width="98.523" height="2.763" transform="translate(0 5.349)" fill="#bec8d2"/><rect width="90.552" height="2.763" transform="translate(0 10.698)" fill="#bec8d2"/><rect width="107.952" height="2.763" transform="translate(0 16.047)" fill="#bec8d2"/></g></g><g transform="translate(0.468 121.609)"><g transform="matrix(1, 0, 0, 1, -71.14, -242.3)" filter="url(#a)"><rect width="37.38" height="10.447" rx="5.223" transform="translate(71.14 242.3)" fill="#fae54e"/></g><g transform="matrix(1, 0, 0, 1, -71.14, -242.3)" filter="url(#c)"><rect width="37.38" height="10.447" rx="5.223" transform="translate(114.19 242.3)" fill="#174159"/></g></g><g transform="translate(0.468 39.293)"><rect width="15.761" height="15.761" fill="#5620d8"/><line x2="15.761" y2="15.761" fill="none" stroke="#f2f2f2" stroke-miterlimit="10" stroke-width="0.5"/><line x1="15.761" y2="15.761" fill="none" stroke="#f2f2f2" stroke-miterlimit="10" stroke-width="0.5"/><g transform="translate(22.074)"><rect width="15.761" height="15.761" fill="#5620d8"/><line x2="15.761" y2="15.761" fill="none" stroke="#f2f2f2" stroke-miterlimit="10" stroke-width="0.5"/><line x1="15.761" y2="15.761" fill="none" stroke="#f2f2f2" stroke-miterlimit="10" stroke-width="0.5"/></g><g transform="translate(44.147)"><rect width="15.761" height="15.761" fill="#5620d8"/><line x2="15.761" y2="15.761" fill="none" stroke="#f2f2f2" stroke-miterlimit="10" stroke-width="0.5"/><line x1="15.761" y2="15.761" fill="none" stroke="#f2f2f2" stroke-miterlimit="10" stroke-width="0.5"/></g></g></g><g transform="matrix(1, 0, 0, 1, -48.71, -0.71)" filter="url(#e)"><rect width="81.968" height="13.912" transform="translate(73.71 184.6) rotate(0.91)" fill="#5620d8"/></g><g transform="translate(44.849)"><g transform="translate(67.416 10.58)"><g transform="translate(75.708)"><line y2="68.576" transform="translate(6.521)" fill="none" stroke="#bec8d2" stroke-linecap="round" stroke-miterlimit="10" stroke-width="1"/><path d="M320.68,156.775a1.146,1.146,0,0,0-1.107,1.184,3.073,3.073,0,0,1-2.524,3.031,3.2,3.2,0,0,1-1.1,0,2.687,2.687,0,0,1-1-.359,3.087,3.087,0,0,1-1.365-1.644,2.92,2.92,0,0,1,.026-2.176c1.626-3.271,4.869-5.354,4.869-8.629a5.984,5.984,0,1,0-4.1-.085c-.209,2.294-2.884,4.354-4.008,7.444a6.314,6.314,0,0,0,.14,4.479,6.193,6.193,0,0,0,2.894,3.19,6.008,6.008,0,0,0,4.092.514,5.666,5.666,0,0,0,3.3-2.155,5.462,5.462,0,0,0,1.07-3.609l-.007-.112A1.146,1.146,0,0,0,320.68,156.775Zm-4.134-16.726a2.469,2.469,0,0,1,1.417,4.493,2.067,2.067,0,0,0-2.84,0,2.469,2.469,0,0,1,1.423-4.488Z" transform="translate(-310.025 -72.981)" fill="#bec8d2"/></g><g transform="translate(0 87.872)"><g transform="translate(0 39.103)"><g transform="translate(8.78 14.926)" opacity="0.2"><rect width="153.053" height="90.29" transform="matrix(0.991, -0.136, 0.136, 0.991, 0, 20.839)"/><path d="M353.681,267.34,315.1,318.221l-33.364-25.3-34.383,45.34.394,2.87L399.37,320.291l-2.808-20.433Z" transform="translate(-235.449 -230.841)"/><path d="M382.422,229.726l11.337,82.492L249.089,332.1l-11.337-82.492,144.67-19.883m3-3.957L233.795,246.608l12.294,89.45,151.628-20.839-12.294-89.45Z" transform="translate(-233.795 -225.769)"/><circle cx="12.738" cy="12.738" r="12.738" transform="translate(54.983 40.175) rotate(-51.193)"/></g><rect width="153.053" height="90.29" transform="matrix(0.991, -0.136, 0.136, 0.991, 0, 20.839)" fill="#bba6ef"/><path d="M343.681,250.34,305.1,301.221l-33.364-25.3-34.383,45.34.394,2.87L389.37,303.291l-2.808-20.433Z" transform="translate(-225.449 -213.841)" fill="#5620d8"/><g transform="translate(0)"><path d="M372.422,212.726l11.337,82.492L239.089,315.1l-11.337-82.492,144.67-19.883m3-3.957L223.795,229.608l12.294,89.45,151.628-20.839-12.294-89.45Z" transform="translate(-223.795 -208.769)" fill="#5620d8"/></g><g transform="translate(54.983 20.323)"><circle cx="12.738" cy="12.738" r="12.738" transform="translate(0 19.852) rotate(-51.193)" fill="#f2f2f2"/></g></g><path d="M234.075,230.931l-6.861,23.2,8.4-23.409" transform="translate(-224.212 -172.345)" fill="none" stroke="#bec8d2" stroke-linecap="round" stroke-linejoin="round" stroke-width="1"/><path d="M379.5,210.658l17.929,21.554-19.471-21.766" transform="translate(-242.605 -169.871)" fill="none" stroke="#bec8d2" stroke-linecap="round" stroke-linejoin="round" stroke-width="1"/><path d="M360.731,204.807l-50.691-39.268a3.09,3.09,0,0,0-4.983-.09l-68.272,57.157" transform="translate(-225.38 -164.232)" fill="none" stroke="#bec8d2" stroke-linecap="round" stroke-linejoin="round" stroke-width="1"/></g></g><g transform="translate(131.583)"><circle cx="7.481" cy="7.481" r="7.481" transform="translate(0 10.58) rotate(-45)" fill="none" stroke="#bec8d2" stroke-linecap="round" stroke-miterlimit="10" stroke-width="1"/><circle cx="2.762" cy="2.762" r="2.762" transform="translate(7.818 7.818)" fill="none" stroke="#bec8d2" stroke-linecap="round" stroke-miterlimit="10" stroke-width="1"/></g><g transform="translate(157.949 176.71)"><g transform="translate(39.129 52.617)"><path d="M372.974,329.166c-2.868,13.047-1.76,29.814,4.583,39.608,5,7.726,13.911,10.113,21.848,16.222l-.369,3.821,3.5-4.173s-4.4-4.373-17.185-17.574c-3.127-3.23-.892-16-.077-19.193,3.974-5.3-.014-10.841-2.644-18.712Z" transform="translate(-371.477 -329.166)" fill="#174159"/><path d="M403.235,392.5l-.369,3.821,3.5-4.173-1.479-1.486A1.694,1.694,0,0,1,403.235,392.5Z" transform="translate(-375.307 -336.669)" fill="#2d80ea"/></g><g transform="translate(31.223 52.617)"><path d="M368.208,329.166c-8.381,16.538-8.036,27.14,4.095,65.751l-3.874,2.4h5.907s-.252-40.813,2.122-50.115c3.974-5.3,4.033-10.167,1.4-18.037Z" transform="translate(-362.473 -329.166)" fill="#2e546a"/><path d="M369.257,406.456h5.907v-2.4s-1.27.747-2.033,0Z" transform="translate(-363.301 -338.304)" fill="#2d80ea"/></g><path d="M377.886,284.563c-1.473,4.51-5.627,6.71-7.791,6.3s-3.288-4.095-2.51-8.238,3.141-6.5,5.327-6.767C376.042,275.475,379.931,278.3,377.886,284.563Z" transform="translate(-331.843 -270.041)" fill="#f2f2f2"/><rect width="4.068" height="10.21" transform="translate(41.053 15.768)" fill="#f2f2f2"/><path d="M373.251,296.053c-5.339.972-8.93,9.732-9.458,12.868-.313,1.86-.108,3.668,1.956,7.285,2.874,5.037,2.6,8.9,2.6,8.9h13.38c0-4,2.573-8.49,4.09-14.729S382.309,294.4,373.251,296.053Z" transform="translate(-331.396 -272.486)" fill="#2d80ea"/><g transform="translate(46.431)"><path d="M379.794,294.083c-.018,0,7.76.935,10.956-.2,7.532-2.686,10.8-9.159,11.057-15.832h2.038s2.73,19.7-15.911,26.738Z" transform="translate(-379.794 -270.312)" fill="#428dec"/><path d="M404.7,276.972c-1.359-1.5-.5-2.733-1.038-3.913s.12-2.529,1.6.692l-.614-4.514s1.764.883,2.091,7.735Z" transform="translate(-382.683 -269.237)" fill="#f2f2f2"/></g><g transform="translate(0 24.519)"><path d="M369.4,297.254c4,.784,3.508,8.019-1.062,12.207-4.312,3.953-16.481,7.412-32.857,9.529l-.532-1.8a57.371,57.371,0,0,0,17.13-6.523C360.057,305.83,363.638,296.123,369.4,297.254Z" transform="translate(-327.891 -297.163)" fill="#428dec"/><path d="M333.972,319.934c-1.755-.83-2.685.231-3.929.048s-1.858.662,1.539,1.172l-4.672.675s1.1,1.3,7.594-.1Z" transform="translate(-326.91 -299.903)" fill="#f2f2f2"/></g><path d="M366.936,276.078c-2.056,3.6,4.694,2.717,4.694,6.246s-7.4,4.184-8.774,8.789c-1.572,5.259,9.156,3.858,7.541,9.315-2.374,8.019-18.075,8.689-12.1,17.187,4.353,6.188,14.972,2.666,13.773,12.774-1.164,9.811,16.751,7.834,18.293-.212,1.025-5.351-8.963-8.6-3.371-12.642,6.845-4.943,15.5-11.567,8.1-17.174-3.744-2.834-13.871-4.591-14.9-9.143s4.955-11.544-2.158-16.2C370.742,270.247,366.936,276.078,366.936,276.078Z" transform="translate(-330.576 -269.713)" fill="#fae54e"/></g><g transform="translate(0 4.181)"><g transform="translate(14.681 84.605)"><path d="M163.731,154.954s3.5,14.232,10.933,14.232c17.036,0,21.907-6.522,28.724-6.072,3.616.239,12.679,6.072,12.679,6.072h5.115l-3.593-2.236s-9.806-12.846-16.377-13.641c-8.322-1.008-19.345,7.249-25.256,1.645Z" transform="translate(-163.731 -153.223)" fill="#174159"/><path d="M223.181,171.094l-1.142-.714a2.789,2.789,0,0,0,2.665-1.522l3.593,2.236Z" transform="translate(-170.846 -155.13)" fill="#2d80ea"/></g><path d="M291.959,56.859l-79.106,49.9-11.373,10.837v37.6" transform="translate(-153.656 -56.859)" fill="none" stroke="#bec8d2" stroke-linecap="round" stroke-miterlimit="10" stroke-width="1"/><g transform="translate(10.542 58.791)"><path d="M199.2,127.381c.706-1.2,2.335-3.541,3.149-1.986.515.983.307,2.72-.162,2.893a9.972,9.972,0,0,1-1.686.282Z" transform="translate(-163.919 -123.95)" fill="#bec8d2"/><path d="M161.011,124.962c6.48-3.656,16.977,8.047,20.157,8.651,5.142.975,12.475-5.78,13.126-6.307l1.3,1.189s-8.028,11.518-15.622,11.735S152.742,129.627,161.011,124.962Z" transform="translate(-159.017 -123.874)" fill="#2d80ea"/><path d="M199.2,127.252a2.669,2.669,0,0,1,1.542-2.128c1.23-.66.971-1.3,1.383-1.3s.846,1.194-.195,1.615a2.768,2.768,0,0,1-1.8,2.668Z" transform="translate(-163.919 -123.821)" fill="#f2f2f2"/><path d="M202.486,125.467c.054.451-.442.382-.923.362-.649-.028-1.31-.125-1.2.724.173,1.334-.025,2.088.617,2.12s1.086.176,1.506-.047S203.128,126.479,202.486,125.467Z" transform="translate(-164.06 -124.022)" fill="#f2f2f2"/></g><g transform="translate(13.284 82.664)"><path d="M176.389,151.011c8.37,16.511,14.838,33.442,30.339,48.1l4.37-1.27-3.947,4.384s-32.415-18.966-41.212-30.6c-3.968-5.292-4.963-9.093-2.337-16.951Z" transform="translate(-162.14 -151.011)" fill="#2e546a"/><path d="M213.156,208.727l3.947-4.384-4.37,1.27a1.92,1.92,0,0,1-1.366,2.048Z" transform="translate(-168.147 -157.518)" fill="#2d80ea"/></g><path d="M157.054,114.584c2.414,3.6,6.613,4.5,8.415,3.61s1.875-4.416.164-7.867-4.375-4.932-6.364-4.629C156.42,106.134,153.7,109.585,157.054,114.584Z" transform="translate(-148.046 -62.814)" fill="#f2f2f2"/><path d="M158.562,125.76l5.727-1.616-2.533-8.979-6.2-3.578Z" transform="translate(-148.052 -63.537)" fill="#f2f2f2"/><path d="M162.628,123.69c-6.067.766-11.288,2.491-8.712,22.854,2.416,19.1,8.712,19.03,8.712,19.03s19.113,1.349,22.978-13.073a29.949,29.949,0,0,1-10.764-16.059C172.3,126.1,167.315,123.1,162.628,123.69Z" transform="translate(-147.77 -65.005)" fill="#428dec"/><g transform="translate(10.166 47.641)"><path d="M163.28,122.475l42.011-8.814.992,2.277s-28.93,18.768-39.036,19.418S155.967,124.672,163.28,122.475Z" transform="translate(-158.589 -111.431)" fill="#428dec"/><path d="M211.781,113.351s1.749-2.383,2.754-2.222,2.333,2.454,1.77,3.338-3.532,1.162-3.532,1.162Z" transform="translate(-165.079 -111.121)" fill="#f2f2f2"/></g><path d="M156.561,119.517a4.834,4.834,0,0,0,2.976-4.753s-1.475.77-1.9-2.433c-.195-1.465,1.244-1.759,1.907-.146.926.341,2.176-.291,1.984-1.99-.309-2.749,3.119-2.287,3.242-5.537.16-4.212-8.242-9.75-9.838-5.908-1.3,3.14-.919,5.025-4.9,5.064C142.708,103.887,150.206,120.986,156.561,119.517Z" transform="translate(-147.01 -61.813)" fill="#174159"/></g></g><g transform="translate(0 173.711)"><g transform="translate(0 2.999)"><g transform="translate(0.438 52.617)"><path d="M125.985,329.166c2.868,13.047,1.76,29.814-4.583,39.608-5,7.726-13.911,10.113-21.847,16.222l.368,3.821-3.5-4.173s4.4-4.373,17.185-17.574c3.128-3.23.892-16,.078-19.193-3.975-5.3.013-10.841,2.644-18.712Z" transform="translate(-96.426 -329.166)" fill="#174159"/><path d="M99.555,392.5l.368,3.821-3.5-4.173,1.479-1.486A1.694,1.694,0,0,0,99.555,392.5Z" transform="translate(-96.426 -336.669)" fill="#2d80ea"/></g><g transform="translate(22.205 52.617)"><path d="M132.677,329.166c8.381,16.538,8.036,27.14-4.095,65.751l3.874,2.4h-5.907s.252-40.813-2.122-50.115c-3.974-5.3-4.033-10.167-1.4-18.037Z" transform="translate(-121.218 -329.166)" fill="#2e546a"/><path d="M133.2,406.456H127.29v-2.4s1.27.747,2.033,0Z" transform="translate(-121.959 -338.304)" fill="#2d80ea"/></g><path d="M123.845,284.563c1.472,4.51,5.626,6.71,7.79,6.3s3.289-4.095,2.511-8.238-3.142-6.5-5.328-6.767C125.688,275.475,121.8,278.3,123.845,284.563Z" transform="translate(-99.264 -270.041)" fill="#f2f2f2"/><rect width="7.14" height="10.21" transform="translate(29.57 25.978) rotate(180)" fill="#f2f2f2"/><path d="M120.119,294.083c.018,0-7.76.935-10.956-.2-7.532-2.686-10.8-9.159-11.057-15.832H96.068s-2.73,19.7,15.911,26.738Z" transform="translate(-95.927 -270.312)" fill="#428dec"/><path d="M98.125,276.972c1.36-1.5.5-2.733,1.038-3.913s-.12-2.529-1.6.692l0-4.514s-1.152.883-1.479,7.735Z" transform="translate(-95.947 -269.237)" fill="#f2f2f2"/></g><path d="M130.295,297.717c-4.961-2.461-7.034-1.435-15.326-1.081s-1.245,20.362-1.245,42.882c0,0,7.209,4.185,25.154,0C138.878,339.519,138.175,301.626,130.295,297.717Z" transform="translate(-97.758 -269.518)" fill="#428dec"/><path d="M127.224,286.148c1.233,2.168-5.845,4.062-7.727,1.882s-8.23-3.887-3.567-12.384c2.03-3.7,2.8-9.123,5.81-9.645,7.226-1.253,10.7,4.3,10.537,7.564-.226,4.515-1.983,7.23-3.8,8.124C127.239,282.3,125.31,282.779,127.224,286.148Z" transform="translate(-98.164 -265.821)" fill="#e148be"/><g transform="translate(24.516 17.454)"><path d="M127.778,295.845c8.6-.041,14.974,4.687,21.255,5.279,7.31.69,14.585-4.276,16.05-8.192l3.285-.57s-4.98,10.518-19.015,15.129c-7.054,2.317-15.68,2.675-20.907.269S121.744,295.873,127.778,295.845Z" transform="translate(-123.851 -286.513)" fill="#428dec"/><path d="M170.764,292.119c-1.035-1.539.538-3.119.756-4.272s.812-2,1.385-2.126c.976-.207.684,1.154.37,2.456a.169.169,0,0,0,.232.2,9.6,9.6,0,0,1,4.218-1c.514.052.831.613-1.246,1.651a4.508,4.508,0,0,0-2.429,2.526Z" transform="translate(-129.532 -285.7)" fill="#f2f2f2"/></g></g></g><g transform="translate(143.966 309.729)"><g transform="translate(0.878 0.878)" opacity="0.2"><rect width="97.678" height="26.012"/><rect width="15.761" height="15.761" transform="translate(6.562 5.125)"/><line x2="15.761" y2="15.761" transform="translate(6.562 5.125)" fill="none" stroke="#000" stroke-miterlimit="10" stroke-width="0.5"/><line x1="15.761" y2="15.761" transform="translate(6.562 5.125)" fill="none" stroke="#000" stroke-miterlimit="10" stroke-width="0.5"/><rect width="58.867" height="1.854" transform="translate(27.811 8.613)"/><rect width="58.867" height="1.854" transform="translate(27.811 15.546)"/><rect width="52.519" height="1.854" transform="translate(27.811 12.079)"/></g><rect width="97.678" height="26.012" fill="#5620d8"/><g transform="translate(6.562 5.125)"><rect width="15.761" height="15.761" fill="#784de0"/><line x2="15.761" y2="15.761" fill="none" stroke="#5620d8" stroke-miterlimit="10" stroke-width="0.5"/><line x1="15.761" y2="15.761" fill="none" stroke="#5620d8" stroke-miterlimit="10" stroke-width="0.5"/><rect width="58.867" height="1.854" transform="translate(21.249 3.487)" fill="#5799ee"/><rect width="58.867" height="1.854" transform="translate(21.249 10.42)" fill="#5799ee"/><rect width="52.519" height="1.854" transform="translate(21.249 6.954)" fill="#5799ee"/></g></g><g transform="translate(128.532 320.93)"><g transform="translate(0.878 0.878)" opacity="0.2"><rect width="97.678" height="26.012"/><rect width="15.761" height="15.761" transform="translate(6.562 5.125)"/><line x2="15.761" y2="15.761" transform="translate(6.562 5.125)" fill="none" stroke="#000" stroke-miterlimit="10" stroke-width="0.5"/><line x1="15.761" y2="15.761" transform="translate(6.562 5.125)" fill="none" stroke="#000" stroke-miterlimit="10" stroke-width="0.5"/><rect width="58.867" height="1.854" transform="translate(27.811 8.613)"/><rect width="58.867" height="1.854" transform="translate(27.811 15.545)"/><rect width="52.519" height="1.854" transform="translate(27.811 12.079)"/></g><rect width="97.678" height="26.012" fill="#2d80ea"/><g transform="translate(6.562 5.125)"><rect width="15.761" height="15.761" fill="#5620d8"/><line x2="15.761" y2="15.761" fill="none" stroke="#2d80ea" stroke-miterlimit="10" stroke-width="0.5"/><line x1="15.761" y2="15.761" fill="none" stroke="#2d80ea" stroke-miterlimit="10" stroke-width="0.5"/><rect width="58.867" height="1.854" transform="translate(21.249 3.487)" fill="#5799ee"/><rect width="58.867" height="1.854" transform="translate(21.249 10.42)" fill="#5799ee"/><rect width="52.519" height="1.854" transform="translate(21.249 6.954)" fill="#5799ee"/></g></g><circle cx="2.563" cy="2.563" r="2.563" transform="translate(213.557 135.132)" fill="#fff" stroke="#bec8d2" stroke-miterlimit="10" stroke-width="1"/><circle cx="5.029" cy="5.029" r="5.029" transform="translate(202.241 116.699)" fill="#fff" stroke="#bec8d2" stroke-miterlimit="10" stroke-width="1"/><circle cx="2.879" cy="2.879" r="2.879" transform="translate(228.547 122.993)" fill="#fff" stroke="#bec8d2" stroke-miterlimit="10" stroke-width="1"/><circle cx="4.055" cy="4.055" r="4.055" transform="translate(50.458 105.63)" fill="#fff" stroke="#bec8d2" stroke-miterlimit="10" stroke-width="1"/><circle cx="3.484" cy="3.484" r="3.484" transform="translate(61.04 96.115)" fill="#fff" stroke="#bec8d2" stroke-miterlimit="10" stroke-width="1"/><circle cx="3.085" cy="3.085" r="3.085" transform="translate(360.739 173.015)" fill="#fff" stroke="#bec8d2" stroke-miterlimit="10" stroke-width="1"/><circle cx="6.71" cy="6.71" r="6.71" transform="translate(376.263 172.699) rotate(-45)" fill="#fff" stroke="#bec8d2" stroke-miterlimit="10" stroke-width="1"/></g></svg>