<svg xmlns="http://www.w3.org/2000/svg" xmlns:xlink="http://www.w3.org/1999/xlink" width="310.42" height="45.474" viewBox="0 0 310.42 45.474"><defs><linearGradient id="a" x1="-3.243" y1="4.849" x2="-2.86" y2="4.026" gradientUnits="objectBoundingBox"><stop offset="0" stop-color="#a0cbff"/><stop offset="0.394" stop-color="#a0cbfe"/><stop offset="0.583" stop-color="#8ec2fc"/><stop offset="0.784" stop-color="#83bcfb"/><stop offset="1" stop-color="#7fbafb"/></linearGradient><linearGradient id="b" x1="-3.79" y1="5.501" x2="-3.532" y2="4.631" gradientUnits="objectBoundingBox"><stop offset="0" stop-color="#090058"/><stop offset="1" stop-color="#070033"/></linearGradient><linearGradient id="c" x1="-13.308" y1="10.988" x2="-11.893" y2="8.988" xlink:href="#a"/><linearGradient id="d" x1="-16.914" y1="14.187" x2="-15.148" y2="11.602" xlink:href="#a"/><linearGradient id="e" x1="-1.188" y1="3.453" x2="-2.168" y2="2.452" gradientUnits="objectBoundingBox"><stop offset="0" stop-color="#ffaa2a"/><stop offset="1" stop-color="#ffc06c"/></linearGradient><linearGradient id="f" x1="-2.068" y1="3.901" x2="-2.068" y2="2.904" gradientUnits="objectBoundingBox"><stop offset="0" stop-color="#251200"/><stop offset="1"/></linearGradient></defs><g transform="translate(-874 -1612)"><g transform="translate(874 1612)"><path d="M0,0H45.42V45.42H0Z" fill="url(#a)"/><path d="M23.859,23.459h38.2V61.776h-38.2Z" transform="translate(-20.247 -19.907)" fill="url(#b)"/><g transform="translate(10.976 12.874)"><path d="M72.5,82.721s2.872-.076,5.236-.076a7.773,7.773,0,0,1,5.236,1.55A5.708,5.708,0,0,1,84.8,88.53a6.029,6.029,0,0,1-1.576,4.335,7.414,7.414,0,0,1-5.489,2.251c-.726.03-1.4.038-1.4.038v5.887H72.5Zm3.838,9.171a11.039,11.039,0,0,0,1.3.014,3.058,3.058,0,0,0,3.329-3.17,2.982,2.982,0,0,0-3.024-3.17c-.788-.029-1.6,0-1.6,0Z" transform="translate(-72.497 -82.645)" fill="url(#c)"/><path d="M162.338,120.4a9.184,9.184,0,0,0,3.843,1.185c1.271,0,1.8-.448,1.8-1.146s-.415-1.434-1.99-1.965c-2.792-.951-3.87-2.089-3.842-3.681,0-2.572,2.156-4.5,5.5-4.5a8.054,8.054,0,0,1,3.663.934v3.087a9.4,9.4,0,0,0-3.524-1.086c-1.023,0-1.6.419-1.6,1.118,0,.643.526.979,2.184,1.566,2.57.894,3.648,2.208,3.675,4.221,0,2.544-1.961,4.567-5.859,4.445a9.255,9.255,0,0,1-3.843-1.129V120.4Z" transform="translate(-148.572 -106.103)" fill="url(#d)"/></g></g><g transform="translate(1006 1613)"><g transform="translate(0)"><path d="M37.376,44.284H8.043A8.036,8.036,0,0,1,0,36.241V8.043A8.036,8.036,0,0,1,8.043,0H37.376a8.036,8.036,0,0,1,8.043,8.043v28.2A8.036,8.036,0,0,1,37.376,44.284Z" transform="translate(0)" fill="#ff26be"/><path d="M138.964,144.7H111.069a6.881,6.881,0,0,1-6.869-6.869V111.069a6.881,6.881,0,0,1,6.869-6.869h27.877a6.869,6.869,0,0,1,6.869,6.869V137.81a6.858,6.858,0,0,1-6.851,6.887Z" transform="translate(-102.307 -102.307)" fill="#2e001f"/><path d="M476.17,602.752l5.3,10.181c.094.151.038.3-.114.3h-3.294a.371.371,0,0,1-.4-.245c-1.212-2.5-2.442-5-3.71-7.683h-.038c-1.135,2.536-2.385,5.205-3.6,7.7a.365.365,0,0,1-.342.209h-3.119c-.189,0-.209-.151-.113-.265l5.185-9.88-5.014-9.992a.153.153,0,0,1,.113-.265h3.256c.189,0,.265.038.34.209,1.192,2.5,2.4,5.072,3.539,7.589h.038c1.1-2.5,2.309-5.091,3.483-7.57.094-.151.151-.245.342-.245h3.047c.151,0,.209.115.114.265Zm6.228,3.085c0-4.409,2.934-7.854,7.589-7.854a8.371,8.371,0,0,1,.985.038v-5.014a.189.189,0,0,1,.189-.189h2.99c.151,0,.189.056.189.151v17.374a13.519,13.519,0,0,0,.094,1.855c0,.115-.038.151-.151.209a11.265,11.265,0,0,1-4.845,1.1c-4.108.016-7.042-2.518-7.04-7.667Zm8.572-4.843a2.843,2.843,0,0,0-1.1-.189c-2.385,0-4.05,1.835-4.05,4.884,0,3.483,1.7,4.884,3.842,4.884a3.546,3.546,0,0,0,1.306-.209v-9.369Z" transform="translate(-458.211 -582.03)" fill="#ffd9f2"/></g></g><g transform="translate(1139 1613)"><path d="M17.409,8.256h45.42V52.729H17.409Z" transform="translate(-17.409 -8.256)" fill="url(#e)"/><path d="M65.157,61.649H68.68l-1.761-6.784ZM53.666,45V77.614H87.445V45ZM70.613,69.087l-1.289-4.409H64.555l-1.289,4.409H60L64.6,53.5V51.793H68.98l5.241,17.294Zm8.678,0H75.768V55.931h3.523Zm-1.74-14.734a1.792,1.792,0,1,1,1.826-1.792A1.809,1.809,0,0,1,77.551,54.353Z" transform="translate(-47.796 -39.052)" fill="url(#f)"/></g></g></svg>